<svg xmlns="http://www.w3.org/2000/svg" xml:space="preserve" x="0px" y="0px" style="enable-background:new 0 0 450 450" viewBox="0 0 450 450"><path d="M264.792 376.48c0 124.263-100.736 225-225 225s-225-100.737-225-225 100.736-225 225-225 225 100.735 225 225z" style="fill-rule:evenodd;clip-rule:evenodd;fill:#875cac;fill-opacity:.9411765" transform="translate(185.208 -151.48)"/><path d="M155.075 194.328v-40.753H107.51V140.64h111.967v12.934H171.35v40.753h-16.275zm-34.077-66.207V76.105h16.138v14.048h52.436v-14.19h16.41v52.158h-84.984zm68.574-25.312h-52.436v12.379h52.436v-12.379zm101.179 38.665c-9.32-3.613-22.39-14.882-27.678-26.286-3.755 12.52-16.688 25.312-28.376 29.763l-9.734-12.792c17.945-6.54 29.627-23.092 29.627-41.87V77.214h16.688v12.243c0 19.196 14.326 34.632 28.794 39.36l-9.32 12.657zm-44.785 49.514v-40.194h16.274v27.402h65.647v12.792h-81.921zm78.863-85.257h17.662v13.489h-17.662v40.895h-16.274V70.261h16.274v35.47zM215.008 215.195h16.275v16.133h-16.275v-16.133zM116.83 326.052l-8.07-12.933c20.307-3.477 42.142-15.578 45.76-36.44h-39.638v-13.352h57.583c-.419 34.214-22.537 54.797-55.635 62.725zm11.682 52.158v-47.43h81.502v47.43h-81.502zm65.233-34.768h-48.823v22.112h48.823v-22.112zm0-18.919v-68.71h16.41v68.71h-16.41zm33.999-39.083h59.111v12.933h-59.111V285.44zm29.768 68.987c-15.997 0-27.124-10.985-27.124-25.73 0-15.72 11.269-25.731 27.124-25.731 16.133 0 27.118 10.153 27.118 25.73 0 15.578-10.985 25.731-27.118 25.731zm-16.274-89.016h33.38v12.934h-33.38V265.41zm16.274 50.352c-7.095 0-12.379 5.283-12.379 12.934 0 7.786 5.284 12.933 12.379 12.933 7.231 0 12.514-5.425 12.514-12.933 0-7.65-5.283-12.934-12.514-12.934zm60.363 63.976v-60.777h-10.294v55.075h-15.16V258.038h15.16v47.85h10.294v-50.075h15.437V379.74h-15.437z" style="fill:#fff"/></svg>