<svg xmlns="http://www.w3.org/2000/svg" xml:space="preserve" width="450px" height="450px" x="0px" y="0px" viewBox="0 0 450 450"><ellipse cx="224.436" cy="224.436" fill="#004FA2" rx="224.436" ry="224.429"/><g fill="#FFF"><path d="M134.324 203.409c1.61 2.654 2.865 5.593 3.767 8.813.899 3.223 1.35 6.681 1.35 10.377 0 5.497-.973 10.447-2.914 14.854-1.943 4.406-4.597 8.173-7.96 11.301-3.365 3.127-7.32 5.519-11.869 7.178-4.548 1.657-9.43 2.487-14.641 2.487-5.117 0-9.928-.83-14.427-2.487-4.502-1.659-8.436-4.051-11.798-7.178-3.365-3.128-6.019-6.895-7.96-11.301-1.943-4.406-2.914-9.356-2.914-14.854 0-3.696.449-7.154 1.351-10.377.899-3.22 2.154-6.158 3.767-8.813H49.465v-16.347h43.78V175.55H54.156v-47.476h94.524v16.204H71.071v15.352h77.609v15.92h-37.667v11.513h43.211v16.347h-19.9zm-32.266 38.805c2.748 0 5.353-.546 7.818-1.635 2.463-1.09 4.595-2.559 6.396-4.406a21.343 21.343 0 0 0 4.264-6.325c1.042-2.367 1.563-4.784 1.563-7.249 0-2.463-.522-4.855-1.563-7.179a19.803 19.803 0 0 0-4.264-6.111c-1.801-1.753-3.934-3.174-6.396-4.265a19.148 19.148 0 0 0-7.818-1.635c-2.75 0-5.308.547-7.676 1.635-2.37 1.091-4.455 2.512-6.254 4.265a19.736 19.736 0 0 0-4.264 6.111c-1.044 2.323-1.563 4.716-1.563 7.179 0 2.465.52 4.882 1.563 7.249a21.254 21.254 0 0 0 4.264 6.325 20.757 20.757 0 0 0 6.254 4.406c2.368 1.089 4.926 1.635 7.676 1.635zM169.715 151.385v-15.493h21.89v-13.219h15.92v13.219h21.89v15.493h-9.95c2.083 3.318 3.718 7.25 4.904 11.798 1.184 4.549 1.776 9.715 1.776 15.494 0 6.254-.688 11.775-2.061 16.56-1.375 4.786-3.247 8.813-5.614 12.082-2.37 3.27-5.188 5.757-8.458 7.462a22.265 22.265 0 0 1-10.448 2.559c-3.695 0-7.156-.853-10.376-2.559-3.223-1.705-6.042-4.192-8.458-7.462-2.417-3.27-4.313-7.296-5.686-12.082-1.375-4.784-2.061-10.306-2.061-16.56 0-5.779.591-10.945 1.777-15.494 1.184-4.548 2.818-8.479 4.904-11.798h-9.949zm29.85 49.324c1.421 0 2.748-.545 3.98-1.635 1.23-1.089 2.297-2.605 3.198-4.549.899-1.941 1.635-4.24 2.203-6.894.569-2.652.853-5.544.853-8.671 0-3.221-.284-6.23-.853-9.026-.568-2.794-1.304-5.234-2.203-7.32-.901-2.083-1.968-3.718-3.198-4.903-1.232-1.185-2.559-1.777-3.98-1.777s-2.725.593-3.909 1.777c-1.186 1.186-2.252 2.82-3.198 4.903-.948 2.086-1.684 4.526-2.203 7.32-.522 2.796-.782 5.806-.782 9.026 0 3.127.26 6.019.782 8.671.52 2.653 1.255 4.952 2.203 6.894.946 1.943 2.012 3.46 3.198 4.549 1.184 1.09 2.488 1.635 3.909 1.635zm58.705 50.602v-80.169h-7.817v80.169H233.68V128.074h16.772v27.291h7.817v-27.291h16.915v123.237H258.27zM363.596 194.454c-8.529-1.326-15.66-3.695-21.393-7.107-5.734-3.411-10.354-7.533-13.859-12.366-3.318 4.833-7.795 8.955-13.432 12.366-5.64 3.412-12.676 5.781-21.109 7.107v-17.057c5.117-.946 9.357-2.417 12.723-4.406 3.362-1.99 5.992-4.383 7.889-7.179a26.857 26.857 0 0 0 3.98-9.168c.757-3.316 1.137-6.774 1.137-10.377v-18.193h16.914v18.193c0 3.603.449 7.061 1.352 10.377a26.987 26.987 0 0 0 4.477 9.168c2.084 2.796 4.879 5.188 8.387 7.179 3.504 1.989 7.818 3.46 12.936 4.406v17.057zm-58.137 56.857v-46.339h16.773v30.561h76.613v15.778h-93.386zm75.193-35.393v-53.445h-24.875v-15.778h24.875v-18.62h16.773v87.844h-16.773z"/></g><g fill="#FFF"><path d="M38.394 312.7v-42.264c3.622-.632 7.728-.948 12.319-.948 7.539 0 13.288 1.643 17.247 4.928 4.38 3.664 6.57 8.95 6.57 15.857 0 7.37-2.148 13.024-6.444 16.962-4.296 3.938-10.719 5.906-19.268 5.906-4.087 0-7.561-.146-10.424-.441zm7.644-36.389v30.134c.589.127 2.021.189 4.296.189 5.264 0 9.276-1.39 12.035-4.169 2.758-2.78 4.138-6.76 4.138-11.94 0-4.759-1.306-8.38-3.917-10.865-2.612-2.485-6.381-3.728-11.308-3.728-1.77 0-3.518.126-5.244.379zM93.923 313.394c-4.591 0-8.298-1.484-11.119-4.453-2.822-2.97-4.233-6.833-4.233-11.593 0-4.928 1.421-8.907 4.264-11.94 2.843-3.032 6.665-4.548 11.466-4.548 4.632 0 8.339 1.475 11.119 4.422 2.78 2.948 4.169 6.781 4.169 11.498 0 4.928-1.432 8.929-4.296 12.003-2.863 3.074-6.653 4.611-11.37 4.611zm0-6.001c2.527 0 4.506-1.138 5.938-3.412 1.178-1.937 1.769-4.232 1.769-6.886 0-2.694-.568-4.969-1.706-6.822-1.348-2.274-3.307-3.412-5.875-3.412-2.612 0-4.612 1.138-6.002 3.412-1.137 1.854-1.706 4.169-1.706 6.948 0 2.653.568 4.928 1.706 6.823 1.391 2.233 3.349 3.349 5.876 3.349zM115.654 312.7v-21.796c0-1.052-.042-2.559-.126-4.517-.085-1.958-.126-3.59-.126-4.896h6.696l.379 4.296c2.021-3.285 5.285-4.928 9.792-4.928 3.622 0 6.38 1.326 8.276 3.979 1.81 2.359 2.716 5.476 2.716 9.35V312.7h-7.644v-17.247c0-5.307-1.958-7.96-5.875-7.96-1.39 0-2.643.433-3.759 1.295a7.005 7.005 0 0 0-2.369 3.254c-.211.717-.316 1.516-.316 2.4V312.7h-7.644zM178.892 290.652v17.436c0 6.57-1.559 11.245-4.675 14.025-2.738 2.441-6.633 3.664-11.687 3.664-4.422 0-8.023-.864-10.803-2.591l1.769-6.19c2.78 1.643 5.749 2.464 8.908 2.464 5.896 0 8.844-2.844 8.844-8.529v-2.464c-1.895 2.738-4.886 4.106-8.971 4.106-4.001 0-7.224-1.516-9.666-4.548-2.274-2.906-3.412-6.465-3.412-10.677 0-4.506 1.2-8.339 3.601-11.498 2.611-3.326 6.085-4.99 10.424-4.99 4.127 0 7.033 1.475 8.718 4.422l.505-3.79h6.76c-.21 2.147-.315 5.201-.315 9.16zm-7.644 8.402v-4.865c0-.884-.105-1.558-.316-2.021-.969-3.369-3.095-5.054-6.38-5.054-2.527 0-4.465 1.116-5.812 3.349-1.137 1.769-1.706 3.979-1.706 6.633 0 2.527.569 4.675 1.706 6.444 1.305 1.895 3.243 2.843 5.812 2.843 3.159 0 5.264-1.558 6.317-4.675.252-.674.379-1.559.379-2.654zM186.851 312.7v-45.17h7.644v17.878c1.095-1.305 2.338-2.357 3.728-3.158 1.769-.926 3.559-1.39 5.37-1.39 3.58 0 6.338 1.369 8.276 4.106 1.684 2.442 2.527 5.581 2.527 9.412V312.7h-7.645v-17.058c0-5.433-1.98-8.149-5.938-8.149-1.349 0-2.57.422-3.665 1.264-1.095.843-1.874 1.874-2.337 3.096-.211.674-.316 1.475-.316 2.4V312.7h-7.644zM245.982 293.81v11.119c0 3.158.189 5.749.568 7.771h-7.076l-.505-3.223c-2.147 2.612-5.139 3.917-8.971 3.917-2.78 0-5.096-.842-6.949-2.526-1.854-1.685-2.78-3.938-2.78-6.76 0-4.506 2.105-7.771 6.318-9.792 3.074-1.432 6.97-2.148 11.688-2.148v-.442c0-3.326-2.044-4.99-6.129-4.99-3.031 0-5.77.821-8.212 2.464l-1.706-5.496c3.2-1.896 6.949-2.843 11.245-2.843 8.34-.001 12.509 4.316 12.509 12.949zm-7.455 8.024v-4.106c-7.075 0-10.613 1.832-10.613 5.496 0 2.822 1.432 4.232 4.296 4.232 1.643 0 3.105-.547 4.391-1.643 1.284-1.094 1.926-2.421 1.926-3.979zM279.591 299.37h-20.405c0 2.316.885 4.191 2.653 5.622 1.643 1.349 3.854 2.022 6.634 2.022 2.905 0 5.727-.484 8.465-1.453l1.326 5.748c-3.243 1.349-6.844 2.022-10.803 2.022-4.801 0-8.613-1.4-11.434-4.201-2.822-2.801-4.233-6.665-4.233-11.593 0-4.843 1.306-8.802 3.917-11.877 2.695-3.242 6.359-4.864 10.992-4.864 4.211 0 7.496 1.453 9.855 4.359 2.231 2.779 3.348 6.359 3.348 10.739 0 1.012-.105 2.171-.315 3.476zm-20.405-5.939h13.456c0-1.811-.505-3.349-1.517-4.611-1.137-1.517-2.779-2.274-4.928-2.274-2.021 0-3.643.717-4.863 2.147-1.223 1.433-1.938 3.012-2.148 4.738zM305.176 312.7v-42.896h7.645v36.136h17.436v6.76h-25.081zM339.163 277.448c-1.307 0-2.369-.399-3.19-1.2-.821-.8-1.232-1.937-1.232-3.411 0-1.432.432-2.559 1.296-3.38.862-.821 1.947-1.231 3.253-1.231 1.305 0 2.39.41 3.254 1.231.862.821 1.295 1.948 1.295 3.38 0 1.433-.453 2.559-1.358 3.38-.908.821-2.013 1.231-3.318 1.231zm3.98 35.252h-7.707v-31.208h7.707V312.7zM351.165 312.7v-21.796c0-1.052-.042-2.559-.126-4.517-.085-1.958-.127-3.59-.127-4.896h6.697l.379 4.296c2.021-3.285 5.285-4.928 9.792-4.928 3.621 0 6.381 1.326 8.275 3.979 1.811 2.359 2.717 5.476 2.717 9.35V312.7h-7.645v-17.247c0-5.307-1.958-7.96-5.875-7.96-1.39 0-2.644.433-3.759 1.295a7.005 7.005 0 0 0-2.369 3.254c-.211.717-.315 1.516-.315 2.4V312.7h-7.644zM412.507 299.37h-20.405c0 2.316.885 4.191 2.653 5.622 1.643 1.349 3.854 2.022 6.633 2.022 2.906 0 5.728-.484 8.466-1.453l1.326 5.748c-3.243 1.349-6.844 2.022-10.803 2.022-4.801 0-8.613-1.4-11.435-4.201s-4.232-6.665-4.232-11.593c0-4.843 1.305-8.802 3.917-11.877 2.694-3.242 6.358-4.864 10.992-4.864 4.211 0 7.496 1.453 9.855 4.359 2.231 2.779 3.348 6.359 3.348 10.739 0 1.012-.105 2.171-.315 3.476zm-20.405-5.939h13.456c0-1.811-.506-3.349-1.517-4.611-1.137-1.517-2.779-2.274-4.927-2.274-2.022 0-3.644.717-4.865 2.147-1.222 1.433-1.937 3.012-2.147 4.738z"/></g></svg>