<svg xmlns="http://www.w3.org/2000/svg" width="540" height="540" version="1.0" viewBox="-540 -540 1080 1080"><circle r="522" style="fill:gray"/><path d="M-390.868-74.267c0 156.872 111.64 260.972 218.287 260.972C-83.599 186.705-19.487 117.126 0 0c-73.355-60.236-95.97-120.826-95.97-167.225 0-98.645 96.57-174.617 210.564-174.617 175.222 0 349.936 185.398 349.936 398.016 0 198.678-160.945 468.112-464.53 468.112 289.555 0 524.286-234.731 524.286-524.286 0-224.029-176.742-490.044-477.431-490.044-284.841.749-437.723 229.311-437.723 415.777Z" style="fill:#cd2e3a;fill-opacity:1"/><path d="M-512.362-21.899c5.043 234.044 193.638 450.094 432.093 450.094 201.901 0 352.199-125.974 352.199-277.911 0-93.373-60.101-171.633-166.674-171.633C72.319-21.349 33.27-12.529 0 0c-19.487 117.126-83.6 186.705-172.581 186.705-106.647 0-218.287-104.1-218.287-260.972 0-186.466 152.882-415.028 437.723-415.777 300.689 0 477.431 266.015 477.431 490.044C524.288-289.555 289.555-524.286 0-524.286c-281.008 0-505.419 222.147-512.362 502.387Z" style="fill:#0047a0;fill-opacity:1"/><path d="M-524.286 0c0 289.555 234.731 524.286 524.286 524.286 303.585 0 464.53-269.434 464.53-468.112 0-212.618-174.714-398.016-349.936-398.016C.6-341.842-95.97-265.87-95.97-167.225-95.97-120.826-73.355-60.237 0 0c33.27-12.53 72.319-21.349 105.256-21.349 106.573 0 166.674 78.26 166.674 171.633 0 151.937-150.298 277.911-352.199 277.911-238.455 0-427.05-216.05-432.093-450.094C-505.419-302.139-281.008-524.286 0-524.286c-289.555 0-524.286 234.731-524.286 524.286Z" style="fill:#ffc224;fill-opacity:1"/></svg>